<svg width="344" height="236" viewBox="0 0 344 236" fill="none" xmlns="http://www.w3.org/2000/svg">
<path d="M0.400024 24.6003C0.400024 11.3455 11.1452 0.600342 24.4 0.600342H319.6C332.855 0.600342 343.6 11.3455 343.6 24.6003V211.8C343.6 225.055 332.855 235.8 319.6 235.8H24.4C11.1452 235.8 0.400024 225.055 0.400024 211.8V24.6003Z" fill="white"/>
<mask id="mask0_1_731" style="mask-type:alpha" maskUnits="userSpaceOnUse" x="0" y="0" width="344" height="236">
<path d="M0.400024 24.6003C0.400024 11.3455 11.1452 0.600342 24.4 0.600342H319.6C332.855 0.600342 343.6 11.3455 343.6 24.6003V211.8C343.6 225.055 332.855 235.8 319.6 235.8H24.4C11.1452 235.8 0.400024 225.055 0.400024 211.8V24.6003Z" fill="white"/>
</mask>
<g mask="url(#mask0_1_731)">
<path d="M0.400024 0.600342H211.6L0.400024 202.2V0.600342Z" fill="#BAE6FD"/>
<path d="M398.8 211.8C398.8 252.89 365.49 286.2 324.4 286.2C283.31 286.2 250 252.89 250 211.8C250 170.71 283.31 137.4 324.4 137.4C365.49 137.4 398.8 170.71 398.8 211.8Z" fill="#FBBF24"/>
<path d="M324.4 148.2C324.4 189.953 290.553 223.8 248.8 223.8C207.047 223.8 173.2 189.953 173.2 148.2C173.2 106.448 207.047 72.6003 248.8 72.6003C290.553 72.6003 324.4 106.448 324.4 148.2Z" fill="white"/>
<path fill-rule="evenodd" clip-rule="evenodd" d="M248.8 211.8C283.925 211.8 312.4 183.325 312.4 148.2C312.4 113.075 283.925 84.6003 248.8 84.6003C213.675 84.6003 185.2 113.075 185.2 148.2C185.2 183.325 213.675 211.8 248.8 211.8ZM248.8 223.8C290.553 223.8 324.4 189.953 324.4 148.2C324.4 106.448 290.553 72.6003 248.8 72.6003C207.047 72.6003 173.2 106.448 173.2 148.2C173.2 189.953 207.047 223.8 248.8 223.8Z" fill="#E0F2FE"/>
</g>
</svg>
