<svg width="31" height="31" viewBox="0 0 31 31" fill="none" xmlns="http://www.w3.org/2000/svg">
<path fill-rule="evenodd" clip-rule="evenodd" d="M3.98584 9.60008C3.98584 9.07936 4.40797 8.65723 4.9287 8.65723H25.6715C26.1922 8.65723 26.6144 9.07936 26.6144 9.60008C26.6144 10.1208 26.1922 10.5429 25.6715 10.5429H4.9287C4.40797 10.5429 3.98584 10.1208 3.98584 9.60008Z" fill="white"/>
<path fill-rule="evenodd" clip-rule="evenodd" d="M3.98584 15.2573C3.98584 14.7366 4.40797 14.3145 4.9287 14.3145H25.6715C26.1922 14.3145 26.6144 14.7366 26.6144 15.2573C26.6144 15.778 26.1922 16.2002 25.6715 16.2002H4.9287C4.40797 16.2002 3.98584 15.778 3.98584 15.2573Z" fill="white"/>
<path fill-rule="evenodd" clip-rule="evenodd" d="M3.98584 20.9145C3.98584 20.3938 4.40797 19.9717 4.9287 19.9717H25.6715C26.1922 19.9717 26.6144 20.3938 26.6144 20.9145C26.6144 21.4353 26.1922 21.8574 25.6715 21.8574H4.9287C4.40797 21.8574 3.98584 21.4353 3.98584 20.9145Z" fill="white"/>
</svg>
