<svg width="270" height="49" viewBox="0 0 270 49" fill="none" xmlns="http://www.w3.org/2000/svg">
<path d="M0.400002 7.8001C0.400002 3.82365 3.62355 0.600098 7.6 0.600098H108.4C112.376 0.600098 115.6 3.82365 115.6 7.8001C115.6 11.7766 112.376 15.0001 108.4 15.0001H7.6C3.62355 15.0001 0.400002 11.7766 0.400002 7.8001Z" fill="white"/>
<path d="M0.400002 41.4002C0.400002 37.4237 3.62355 34.2002 7.6 34.2002H162.4C166.376 34.2002 169.6 37.4237 169.6 41.4002C169.6 45.3767 166.376 48.6002 162.4 48.6002H7.6C3.62355 48.6002 0.400002 45.3767 0.400002 41.4002Z" fill="white"/>
<path d="M134.8 7.8001C134.8 3.82365 138.024 0.600098 142 0.600098H262C265.976 0.600098 269.2 3.82365 269.2 7.8001C269.2 11.7766 265.976 15.0001 262 15.0001H142C138.024 15.0001 134.8 11.7766 134.8 7.8001Z" fill="white"/>
</svg>
