<svg width="31" height="31" viewBox="0 0 31 31" fill="none" xmlns="http://www.w3.org/2000/svg">
<path fill-rule="evenodd" clip-rule="evenodd" d="M11.0233 3.001C11.4697 3.01883 11.8423 3.34746 11.9157 3.78811L14.9996 22.2911L17.622 13.1126C17.7356 12.7152 18.0948 12.438 18.5081 12.429C18.9214 12.4201 19.2923 12.6814 19.423 13.0735L21.0939 18.0859H24.1857C24.7064 18.0859 25.1286 18.5081 25.1286 19.0288C25.1286 19.5495 24.7064 19.9716 24.1857 19.9716H20.4143C20.0085 19.9716 19.6481 19.7119 19.5198 19.3269L18.5979 16.5611L15.6637 26.8307C15.5426 27.2545 15.144 27.5379 14.7038 27.513C14.2637 27.4881 13.8996 27.1615 13.8271 26.7266L10.801 8.56968L8.12899 19.2575C8.02406 19.6772 7.64693 19.9716 7.21429 19.9716H3.44286C2.92213 19.9716 2.5 19.5495 2.5 19.0288C2.5 18.5081 2.92213 18.0859 3.44286 18.0859H6.47812L10.071 3.71443C10.1794 3.28105 10.577 2.98318 11.0233 3.001Z" fill="white"/>
<path fill-rule="evenodd" clip-rule="evenodd" d="M26.0715 18.0859C25.5508 18.0859 25.1286 18.508 25.1286 19.0288C25.1286 19.5495 25.5508 19.9716 26.0715 19.9716C26.5922 19.9716 27.0143 19.5495 27.0143 19.0288C27.0143 18.508 26.5922 18.0859 26.0715 18.0859ZM23.2429 19.0288C23.2429 17.4666 24.5093 16.2002 26.0715 16.2002C27.6337 16.2002 28.9001 17.4666 28.9001 19.0288C28.9001 20.5909 27.6337 21.8573 26.0715 21.8573C24.5093 21.8573 23.2429 20.5909 23.2429 19.0288Z" fill="white"/>
</svg>
