<svg width="31" height="31" viewBox="0 0 31 31" fill="none" xmlns="http://www.w3.org/2000/svg">
<path fill-rule="evenodd" clip-rule="evenodd" d="M7.77608 4.71924C9.45346 3.59846 11.4255 3.00024 13.4429 3.00024V3.9431V3.00024C16.148 3.00042 18.7423 4.0751 20.6551 5.98791C22.5679 7.90072 23.6426 10.495 23.6428 13.2001C23.6428 15.2175 23.0446 17.1896 21.9238 18.8669C20.803 20.5443 19.21 21.8517 17.3462 22.6237C15.4824 23.3957 13.4315 23.5977 11.453 23.2041C9.47437 22.8105 7.65691 21.8391 6.23042 20.4126C4.80393 18.9861 3.83248 17.1687 3.43891 15.1901C3.04535 13.2115 3.24734 11.1606 4.01935 9.29684C4.79136 7.43304 6.09871 5.84003 7.77608 4.71924ZM13.4428 4.88595C11.7984 4.88597 10.191 5.37359 8.82373 6.28716C7.45646 7.20074 6.39081 8.49924 5.76152 10.0185C5.13224 11.5377 4.96759 13.2094 5.28839 14.8222C5.6092 16.435 6.40106 17.9164 7.56382 19.0792C8.72659 20.242 10.208 21.0338 11.8209 21.3546C13.4336 21.6754 15.1053 21.5108 16.6246 20.8815C18.1438 20.2522 19.4423 19.1866 20.3559 17.8193C21.2695 16.452 21.7571 14.8446 21.7571 13.2002" fill="white"/>
<path fill-rule="evenodd" clip-rule="evenodd" d="M19.6827 19.44C20.0509 19.0718 20.6478 19.0718 21.0161 19.44L27.4811 25.905C27.8493 26.2732 27.8493 26.8702 27.4811 27.2384C27.1129 27.6066 26.5159 27.6066 26.1477 27.2384L19.6827 20.7734C19.3144 20.4052 19.3144 19.8082 19.6827 19.44Z" fill="white"/>
</svg>
